# xmcd
#
# Track frame offsets: 
#        300
#        13387
#        25066
#        39892
#        56331
#        69292
#        84795
#        97717
#        115461
#        131021
#        146581
#        160380
#        177205
#        194218
#        216366
#        228938
#        242459
#        256110
#        272542
#        285593
#        296510
#        308614
#        322374
#
# Disc length: 4464 seconds
#
# Revision: 0
# Processed by: cddbd v1.5.2PL0 Copyright (c) Steve Scherf et al.
# Submitted via: ExactAudioCopy v1.0b1
#
DISCID=44116c17
DTITLE=Dana Gillespie - Blues It Up
DYEAR=1990
DGENRE=Blues
TTITLE0=A Lotta What You Got
TTITLE1=My Man Stands Out
TTITLE2=Fat Sam From Birmingham
TTITLE3=Sweet Meat
TTITLE4=Ugly Papa
TTITLE5=Sweets
TTITLE6=King Size Papa
TTITLE7=One Hour Mama
TTITLE8=Three Hundred Pounds Of Joy
TTITLE9=Don't You Make Me High
TTITLE10=Big Ten Inch Record
TTITLE11=Below The Belt
TTITLE12=Long Lean Baby
TTITLE13=Tongue In Cheek
TTITLE14=Meat Balls
TTITLE15=Wasn't That Good
TTITLE16=Joe's Joint
TTITLE17=Organ Grinder
TTITLE18=Come On (If You're Coming)
TTITLE19=Nosey Joe
TTITLE20=It Ain't The Meat
TTITLE21=Sixty Minute Man
TTITLE22=Snatch And Grab It
EXTD=
EXTT0=
EXTT1=
EXTT2=
EXTT3=
EXTT4=
EXTT5=
EXTT6=
EXTT7=
EXTT8=
EXTT9=
EXTT10=
EXTT11=
EXTT12=
EXTT13=
EXTT14=
EXTT15=
EXTT16=
EXTT17=
EXTT18=
EXTT19=
EXTT20=
EXTT21=
EXTT22=
PLAYORDER=
